<svg width="1921" height="290" viewBox="0 0 1921 290" fill="none" xmlns="http://www.w3.org/2000/svg">
<g clip-path="url(#clip0_11_5)">
<path d="M0 58H35.6185C71.1037 58 142.741 58 213.444 72.5C284.548 87 356.185 116 426.889 130.5C497.993 145 569.63 145 640.333 120.8C711.437 97 783.074 48 853.778 58C924.882 68 996.519 135 1067.22 149.8C1138.33 164 1209.96 126 1280.67 135.3C1351.77 145 1423.41 203 1494.11 193.3C1565.21 184 1636.85 106 1707.56 67.7C1778.66 29 1850.3 29 1921 24.2C1992.1 19 2063.74 10 2134.44 43.5C2205.55 77 2277.19 155 2347.89 178.8C2418.99 203 2490.63 174 2561.33 159.5C2632.44 145 2704.07 145 2774.78 125.7C2845.88 106 2917.52 68 2988.22 53.2C3059.33 39 3130.96 48 3201.67 53.2C3272.77 58 3344.41 58 3415.11 72.5C3486.22 87 3557.85 116 3628.56 135.3C3699.66 155 3771.3 164 3842 169.2C3913.1 174 3984.74 174 4055.44 159.5C4126.55 145 4198.19 116 4268.89 91.8C4339.99 68 4411.63 48 4482.33 43.5C4553.44 39 4625.07 48 4695.78 72.5C4766.88 97 4838.52 135 4909.22 164.3C4980.33 193 5051.96 213 5086.65 222.3L5122.67 232V290H5087.05C5051.56 290 4979.93 290 4909.22 290C4838.12 290 4766.48 290 4695.78 290C4624.67 290 4553.04 290 4482.33 290C4411.23 290 4339.59 290 4268.89 290C4197.79 290 4126.15 290 4055.44 290C3984.34 290 3912.7 290 3842 290C3770.9 290 3699.26 290 3628.56 290C3557.45 290 3485.81 290 3415.11 290C3344.01 290 3272.37 290 3201.67 290C3130.56 290 3058.93 290 2988.22 290C2917.12 290 2845.48 290 2774.78 290C2703.67 290 2632.04 290 2561.33 290C2490.23 290 2418.59 290 2347.89 290C2276.79 290 2205.15 290 2134.44 290C2063.34 290 1991.7 290 1921 290C1849.9 290 1778.26 290 1707.56 290C1636.45 290 1564.81 290 1494.11 290C1423.01 290 1351.37 290 1280.67 290C1209.56 290 1137.93 290 1067.22 290C996.119 290 924.481 290 853.778 290C782.674 290 711.037 290 640.333 290C569.23 290 497.592 290 426.889 290C355.785 290 284.148 290 213.444 290C142.341 290 70.7035 290 36.0188 290H0V58Z" fill="url(#paint0_linear_11_5)"/>
<path opacity="0.9" d="M0 29L35.6185 33.8C71.1037 39 142.741 48 213.444 43.5C284.548 39 356.185 19 426.889 19.3C497.993 19 569.63 39 640.333 38.7C711.437 39 783.074 19 853.778 29C924.882 39 996.519 77 1067.22 91.8C1138.33 106 1209.96 97 1280.67 111.2C1351.77 126 1423.41 164 1494.11 149.8C1565.21 135 1636.85 68 1707.56 62.8C1778.66 58 1850.3 116 1921 140.2C1992.1 164 2063.74 155 2134.44 145C2205.55 135 2277.19 126 2347.89 130.5C2418.99 135 2490.63 155 2561.33 140.2C2632.44 126 2704.07 77 2774.78 53.2C2845.88 29 2917.52 29 2988.22 38.7C3059.33 48 3130.96 68 3201.67 67.7C3272.77 68 3344.41 48 3415.11 38.7C3486.22 29 3557.85 29 3628.56 24.2C3699.66 19 3771.3 10 3842 38.7C3913.1 68 3984.74 135 4055.44 164.3C4126.55 193 4198.19 184 4268.89 164.3C4339.99 145 4411.63 116 4482.33 96.7C4553.44 77 4625.07 68 4695.78 77.3C4766.88 87 4838.52 116 4909.22 111.2C4980.33 106 5051.96 68 5086.65 48.3L5122.67 29V290H5087.05C5051.56 290 4979.93 290 4909.22 290C4838.12 290 4766.48 290 4695.78 290C4624.67 290 4553.04 290 4482.33 290C4411.23 290 4339.59 290 4268.89 290C4197.79 290 4126.15 290 4055.44 290C3984.34 290 3912.7 290 3842 290C3770.9 290 3699.26 290 3628.56 290C3557.45 290 3485.81 290 3415.11 290C3344.01 290 3272.37 290 3201.67 290C3130.56 290 3058.93 290 2988.22 290C2917.12 290 2845.48 290 2774.78 290C2703.67 290 2632.04 290 2561.33 290C2490.23 290 2418.59 290 2347.89 290C2276.79 290 2205.15 290 2134.44 290C2063.34 290 1991.7 290 1921 290C1849.9 290 1778.26 290 1707.56 290C1636.45 290 1564.81 290 1494.11 290C1423.01 290 1351.37 290 1280.67 290C1209.56 290 1137.93 290 1067.22 290C996.119 290 924.481 290 853.778 290C782.674 290 711.037 290 640.333 290C569.23 290 497.592 290 426.889 290C355.785 290 284.148 290 213.444 290C142.341 290 70.7035 290 36.0188 290H0V29Z" fill="url(#paint1_linear_11_5)"/>
<path opacity="0.8" d="M0 145L35.6185 135.3C71.1037 126 142.741 106 213.444 111.2C284.548 116 356.185 145 426.889 174C497.993 203 569.63 232 640.333 203C711.437 174 783.074 87 853.778 67.7C924.882 48 996.519 97 1067.22 130.5C1138.33 164 1209.96 184 1280.67 178.8C1351.77 174 1423.41 145 1494.11 140.2C1565.21 135 1636.85 155 1707.56 154.7C1778.66 155 1850.3 135 1921 106.3C1992.1 77 2063.74 39 2134.44 58C2205.55 77 2277.19 155 2347.89 159.5C2418.99 164 2490.63 97 2561.33 91.8C2632.44 87 2704.07 145 2774.78 174C2845.88 203 2917.52 203 2988.22 203C3059.33 203 3130.96 203 3201.67 169.2C3272.77 135 3344.41 68 3415.11 62.8C3486.22 58 3557.85 116 3628.56 145C3699.66 174 3771.3 174 3842 188.5C3913.1 203 3984.74 232 4055.44 207.8C4126.55 184 4198.19 106 4268.89 67.7C4339.99 29 4411.63 29 4482.33 38.7C4553.44 48 4625.07 68 4695.78 106.3C4766.88 145 4838.52 203 4909.22 188.5C4980.33 174 5051.96 87 5086.65 43.5L5122.67 0V290H5087.05C5051.56 290 4979.93 290 4909.22 290C4838.12 290 4766.48 290 4695.78 290C4624.67 290 4553.04 290 4482.33 290C4411.23 290 4339.59 290 4268.89 290C4197.79 290 4126.15 290 4055.44 290C3984.34 290 3912.7 290 3842 290C3770.9 290 3699.26 290 3628.56 290C3557.45 290 3485.81 290 3415.11 290C3344.01 290 3272.37 290 3201.67 290C3130.56 290 3058.93 290 2988.22 290C2917.12 290 2845.48 290 2774.78 290C2703.67 290 2632.04 290 2561.33 290C2490.23 290 2418.59 290 2347.89 290C2276.79 290 2205.15 290 2134.44 290C2063.34 290 1991.7 290 1921 290C1849.9 290 1778.26 290 1707.56 290C1636.45 290 1564.81 290 1494.11 290C1423.01 290 1351.37 290 1280.67 290C1209.56 290 1137.93 290 1067.22 290C996.119 290 924.481 290 853.778 290C782.674 290 711.037 290 640.333 290C569.23 290 497.592 290 426.889 290C355.785 290 284.148 290 213.444 290C142.341 290 70.7035 290 36.0188 290H0V145Z" fill="url(#paint2_linear_11_5)"/>
</g>
<defs>
<linearGradient id="paint0_linear_11_5" x1="0" y1="290" x2="0" y2="19.0649" gradientUnits="userSpaceOnUse">
<stop stop-color="#8703C0"/>
<stop offset="0.0001" stop-color="#8703C0"/>
<stop offset="1" stop-color="#D1ADFD"/>
</linearGradient>
<linearGradient id="paint1_linear_11_5" x1="0" y1="290" x2="0" y2="18.6509" gradientUnits="userSpaceOnUse">
<stop stop-color="#8703C0"/>
<stop offset="0.0001" stop-color="#8703C0"/>
<stop offset="1" stop-color="#D1ADFD"/>
</linearGradient>
<linearGradient id="paint2_linear_11_5" x1="0" y1="290" x2="0" y2="0" gradientUnits="userSpaceOnUse">
<stop stop-color="#8703C0"/>
<stop offset="0.0001" stop-color="#8703C0"/>
<stop offset="1" stop-color="#D1ADFD"/>
</linearGradient>
<clipPath id="clip0_11_5">
<rect width="1921" height="290" fill="white"/>
</clipPath>
</defs>
</svg>
