<svg width="623" height="233" viewBox="0 0 623 233" fill="none" xmlns="http://www.w3.org/2000/svg">
<g filter="url(#filter0_dd_78_161)">
<path d="M4 40C4 17.9086 21.9086 0 44 0H152C174.091 0 192 17.9086 192 40V185C192 207.091 174.091 225 152 225H44C21.9086 225 4 207.091 4 185V40Z" fill="black" fill-opacity="0.36" shape-rendering="crispEdges"/>
<path d="M44 2H152C172.987 2 190 19.0132 190 40V185C190 205.987 172.987 223 152 223H44C23.0132 223 6 205.987 6 185V40C6 19.0132 23.0132 2 44 2Z" stroke="black" stroke-width="4" shape-rendering="crispEdges"/>
</g>
<g filter="url(#filter1_dd_78_161)">
<path d="M217 34.5C217 15.4462 232.446 0 251.5 0H371.5C390.554 0 406 15.4462 406 34.5V34.5C406 53.5538 390.554 69 371.5 69H251.5C232.446 69 217 53.5538 217 34.5V34.5Z" fill="black" fill-opacity="0.36" shape-rendering="crispEdges"/>
<path d="M251.5 2H371.5C389.449 2 404 16.5507 404 34.5C404 52.4493 389.449 67 371.5 67H251.5C233.551 67 219 52.4493 219 34.5C219 16.5507 233.551 2 251.5 2Z" stroke="black" stroke-width="4" shape-rendering="crispEdges"/>
</g>
<g filter="url(#filter2_dd_78_161)">
<path d="M217 112.5C217 93.4462 232.446 78 251.5 78H371.5C390.554 78 406 93.4462 406 112.5V112.5C406 131.554 390.554 147 371.5 147H251.5C232.446 147 217 131.554 217 112.5V112.5Z" fill="black" fill-opacity="0.36" shape-rendering="crispEdges"/>
<path d="M251.5 80H371.5C389.449 80 404 94.5507 404 112.5C404 130.449 389.449 145 371.5 145H251.5C233.551 145 219 130.449 219 112.5C219 94.5507 233.551 80 251.5 80Z" stroke="black" stroke-width="4" shape-rendering="crispEdges"/>
</g>
<g filter="url(#filter3_dd_78_161)">
<path d="M217 190.5C217 171.446 232.446 156 251.5 156H371.5C390.554 156 406 171.446 406 190.5V190.5C406 209.554 390.554 225 371.5 225H251.5C232.446 225 217 209.554 217 190.5V190.5Z" fill="black" fill-opacity="0.36" shape-rendering="crispEdges"/>
<path d="M251.5 158H371.5C389.449 158 404 172.551 404 190.5C404 208.449 389.449 223 371.5 223H251.5C233.551 223 219 208.449 219 190.5C219 172.551 233.551 158 251.5 158Z" stroke="black" stroke-width="4" shape-rendering="crispEdges"/>
</g>
<g filter="url(#filter4_dd_78_161)">
<path d="M431 40C431 17.9086 448.909 0 471 0H579C601.091 0 619 17.9086 619 40V185C619 207.091 601.091 225 579 225H471C448.909 225 431 207.091 431 185V40Z" fill="black" fill-opacity="0.36" shape-rendering="crispEdges"/>
<path d="M471 2H579C599.987 2 617 19.0132 617 40V185C617 205.987 599.987 223 579 223H471C450.013 223 433 205.987 433 185V40C433 19.0132 450.013 2 471 2Z" stroke="black" stroke-width="4" shape-rendering="crispEdges"/>
</g>
<path d="M240.32 100.531L242.392 96.0469H244.634L241.366 102.391V106H239.281V102.391L236.014 96.0469H238.263L240.32 100.531ZM244.654 102.233C244.654 101.5 244.796 100.846 245.078 100.271C245.361 99.6973 245.766 99.2529 246.295 98.9385C246.828 98.624 247.446 98.4668 248.147 98.4668C249.146 98.4668 249.959 98.7721 250.588 99.3828C251.221 99.9935 251.575 100.823 251.647 101.871L251.661 102.377C251.661 103.512 251.344 104.423 250.711 105.111C250.077 105.795 249.228 106.137 248.161 106.137C247.095 106.137 246.243 105.795 245.604 105.111C244.971 104.428 244.654 103.498 244.654 102.322V102.233ZM246.63 102.377C246.63 103.079 246.762 103.617 247.026 103.99C247.291 104.359 247.669 104.544 248.161 104.544C248.64 104.544 249.013 104.362 249.282 103.997C249.551 103.628 249.686 103.04 249.686 102.233C249.686 101.545 249.551 101.012 249.282 100.634C249.013 100.256 248.635 100.066 248.147 100.066C247.664 100.066 247.291 100.256 247.026 100.634C246.762 101.007 246.63 101.589 246.63 102.377ZM257.308 105.248C256.82 105.84 256.146 106.137 255.284 106.137C254.491 106.137 253.885 105.909 253.466 105.453C253.051 104.997 252.839 104.33 252.83 103.45V98.6035H254.806V103.382C254.806 104.152 255.157 104.537 255.858 104.537C256.528 104.537 256.989 104.305 257.239 103.84V98.6035H259.222V106H257.362L257.308 105.248ZM264.868 100.456C264.599 100.42 264.362 100.401 264.157 100.401C263.41 100.401 262.92 100.654 262.688 101.16V106H260.712V98.6035H262.578L262.633 99.4854C263.029 98.8063 263.578 98.4668 264.28 98.4668C264.499 98.4668 264.704 98.4964 264.896 98.5557L264.868 100.456ZM273.126 102.356H271.492V106H269.441V96.0469H273.14C274.315 96.0469 275.222 96.3089 275.86 96.833C276.498 97.3571 276.817 98.0977 276.817 99.0547C276.817 99.7337 276.669 100.301 276.373 100.757C276.081 101.208 275.637 101.568 275.04 101.837L277.193 105.904V106H274.992L273.126 102.356ZM271.492 100.695H273.146C273.661 100.695 274.06 100.565 274.343 100.306C274.625 100.041 274.767 99.679 274.767 99.2188C274.767 98.7493 274.632 98.3802 274.363 98.1113C274.099 97.8424 273.691 97.708 273.14 97.708H271.492V100.695ZM281.657 106.137C280.573 106.137 279.688 105.804 279.005 105.139C278.326 104.473 277.986 103.587 277.986 102.479V102.288C277.986 101.545 278.13 100.882 278.417 100.299C278.704 99.7109 279.11 99.2598 279.634 98.9453C280.162 98.6263 280.764 98.4668 281.438 98.4668C282.45 98.4668 283.245 98.7858 283.824 99.4238C284.408 100.062 284.699 100.966 284.699 102.138V102.944H279.989C280.053 103.427 280.244 103.815 280.563 104.106C280.887 104.398 281.295 104.544 281.787 104.544C282.548 104.544 283.143 104.268 283.571 103.717L284.542 104.804C284.246 105.223 283.845 105.551 283.339 105.788C282.833 106.021 282.272 106.137 281.657 106.137ZM281.432 100.066C281.04 100.066 280.721 100.199 280.475 100.463C280.233 100.727 280.078 101.105 280.01 101.598H282.758V101.44C282.749 101.003 282.63 100.666 282.402 100.429C282.174 100.187 281.851 100.066 281.432 100.066ZM292.485 102.37C292.485 103.509 292.226 104.423 291.706 105.111C291.191 105.795 290.494 106.137 289.614 106.137C288.867 106.137 288.263 105.877 287.803 105.357V108.844H285.827V98.6035H287.659L287.728 99.3281C288.206 98.7539 288.83 98.4668 289.601 98.4668C290.512 98.4668 291.221 98.804 291.727 99.4785C292.232 100.153 292.485 101.083 292.485 102.268V102.37ZM290.51 102.227C290.51 101.538 290.387 101.007 290.141 100.634C289.899 100.26 289.546 100.073 289.081 100.073C288.461 100.073 288.035 100.31 287.803 100.784V103.812C288.044 104.3 288.475 104.544 289.095 104.544C290.038 104.544 290.51 103.771 290.51 102.227ZM297.722 103.956C297.722 103.715 297.601 103.525 297.359 103.389C297.122 103.247 296.74 103.122 296.211 103.013C294.452 102.644 293.572 101.896 293.572 100.771C293.572 100.114 293.843 99.5674 294.386 99.1299C294.933 98.6878 295.646 98.4668 296.525 98.4668C297.464 98.4668 298.214 98.6878 298.774 99.1299C299.34 99.5719 299.622 100.146 299.622 100.853H297.646C297.646 100.57 297.555 100.338 297.373 100.155C297.191 99.9684 296.906 99.875 296.519 99.875C296.186 99.875 295.928 99.9502 295.746 100.101C295.564 100.251 295.473 100.442 295.473 100.675C295.473 100.894 295.575 101.071 295.78 101.208C295.99 101.34 296.341 101.456 296.833 101.557C297.325 101.652 297.74 101.762 298.077 101.885C299.121 102.268 299.643 102.931 299.643 103.874C299.643 104.549 299.353 105.095 298.774 105.515C298.196 105.929 297.448 106.137 296.532 106.137C295.912 106.137 295.361 106.027 294.878 105.809C294.399 105.585 294.023 105.282 293.75 104.899C293.477 104.512 293.34 104.095 293.34 103.648H295.213C295.231 103.999 295.361 104.268 295.603 104.455C295.844 104.642 296.168 104.735 296.573 104.735C296.951 104.735 297.236 104.665 297.428 104.523C297.624 104.378 297.722 104.188 297.722 103.956Z" fill="white"/>
<path d="M240.32 176.531L242.392 172.047H244.634L241.366 178.391V182H239.281V178.391L236.014 172.047H238.263L240.32 176.531ZM244.654 178.233C244.654 177.5 244.796 176.846 245.078 176.271C245.361 175.697 245.766 175.253 246.295 174.938C246.828 174.624 247.446 174.467 248.147 174.467C249.146 174.467 249.959 174.772 250.588 175.383C251.221 175.993 251.575 176.823 251.647 177.871L251.661 178.377C251.661 179.512 251.344 180.423 250.711 181.111C250.077 181.795 249.228 182.137 248.161 182.137C247.095 182.137 246.243 181.795 245.604 181.111C244.971 180.428 244.654 179.498 244.654 178.322V178.233ZM246.63 178.377C246.63 179.079 246.762 179.617 247.026 179.99C247.291 180.359 247.669 180.544 248.161 180.544C248.64 180.544 249.013 180.362 249.282 179.997C249.551 179.628 249.686 179.04 249.686 178.233C249.686 177.545 249.551 177.012 249.282 176.634C249.013 176.256 248.635 176.066 248.147 176.066C247.664 176.066 247.291 176.256 247.026 176.634C246.762 177.007 246.63 177.589 246.63 178.377ZM257.308 181.248C256.82 181.84 256.146 182.137 255.284 182.137C254.491 182.137 253.885 181.909 253.466 181.453C253.051 180.997 252.839 180.33 252.83 179.45V174.604H254.806V179.382C254.806 180.152 255.157 180.537 255.858 180.537C256.528 180.537 256.989 180.305 257.239 179.84V174.604H259.222V182H257.362L257.308 181.248ZM264.868 176.456C264.599 176.42 264.362 176.401 264.157 176.401C263.41 176.401 262.92 176.654 262.688 177.16V182H260.712V174.604H262.578L262.633 175.485C263.029 174.806 263.578 174.467 264.28 174.467C264.499 174.467 264.704 174.496 264.896 174.556L264.868 176.456ZM274.603 179.389C274.603 179.001 274.466 178.705 274.192 178.5C273.919 178.29 273.427 178.072 272.716 177.844C272.005 177.611 271.442 177.383 271.027 177.16C269.897 176.549 269.332 175.727 269.332 174.692C269.332 174.155 269.482 173.676 269.783 173.257C270.089 172.833 270.524 172.503 271.089 172.266C271.659 172.029 272.297 171.91 273.003 171.91C273.714 171.91 274.347 172.04 274.903 172.3C275.459 172.555 275.89 172.917 276.195 173.387C276.505 173.856 276.66 174.389 276.66 174.986H274.609C274.609 174.531 274.466 174.177 274.179 173.927C273.892 173.672 273.488 173.544 272.969 173.544C272.467 173.544 272.078 173.651 271.8 173.865C271.522 174.075 271.383 174.353 271.383 174.699C271.383 175.023 271.545 175.294 271.868 175.513C272.196 175.731 272.677 175.937 273.311 176.128C274.477 176.479 275.327 176.914 275.86 177.434C276.394 177.953 276.66 178.6 276.66 179.375C276.66 180.236 276.334 180.913 275.683 181.405C275.031 181.893 274.154 182.137 273.051 182.137C272.285 182.137 271.588 181.998 270.959 181.72C270.33 181.437 269.849 181.052 269.517 180.564C269.188 180.077 269.024 179.512 269.024 178.869H271.082C271.082 179.967 271.738 180.517 273.051 180.517C273.538 180.517 273.919 180.419 274.192 180.223C274.466 180.022 274.603 179.744 274.603 179.389ZM280.29 172.785V174.604H281.555V176.053H280.29V179.744C280.29 180.018 280.342 180.214 280.447 180.332C280.552 180.451 280.753 180.51 281.049 180.51C281.268 180.51 281.461 180.494 281.63 180.462V181.959C281.243 182.077 280.844 182.137 280.434 182.137C279.048 182.137 278.342 181.437 278.314 180.038V176.053H277.234V174.604H278.314V172.785H280.29ZM286.941 182C286.85 181.822 286.784 181.601 286.743 181.337C286.265 181.87 285.643 182.137 284.877 182.137C284.152 182.137 283.551 181.927 283.072 181.508C282.598 181.089 282.361 180.56 282.361 179.922C282.361 179.138 282.651 178.536 283.229 178.117C283.813 177.698 284.654 177.486 285.752 177.481H286.661V177.058C286.661 176.716 286.572 176.442 286.395 176.237C286.221 176.032 285.946 175.93 285.567 175.93C285.235 175.93 284.973 176.009 284.781 176.169C284.594 176.328 284.501 176.547 284.501 176.825H282.525C282.525 176.397 282.658 176 282.922 175.636C283.186 175.271 283.56 174.986 284.043 174.781C284.526 174.572 285.068 174.467 285.67 174.467C286.581 174.467 287.304 174.697 287.837 175.157C288.375 175.613 288.644 176.256 288.644 177.085V180.291C288.648 180.993 288.746 181.524 288.938 181.884V182H286.941ZM285.308 180.626C285.599 180.626 285.868 180.562 286.114 180.435C286.36 180.302 286.543 180.127 286.661 179.908V178.637H285.923C284.934 178.637 284.408 178.979 284.344 179.662L284.337 179.778C284.337 180.024 284.424 180.227 284.597 180.387C284.77 180.546 285.007 180.626 285.308 180.626ZM292.526 172.785V174.604H293.791V176.053H292.526V179.744C292.526 180.018 292.579 180.214 292.684 180.332C292.788 180.451 292.989 180.51 293.285 180.51C293.504 180.51 293.698 180.494 293.866 180.462V181.959C293.479 182.077 293.08 182.137 292.67 182.137C291.285 182.137 290.578 181.437 290.551 180.038V176.053H289.471V174.604H290.551V172.785H292.526ZM298.897 179.956C298.897 179.715 298.777 179.525 298.535 179.389C298.298 179.247 297.915 179.122 297.387 179.013C295.628 178.644 294.748 177.896 294.748 176.771C294.748 176.114 295.019 175.567 295.562 175.13C296.108 174.688 296.822 174.467 297.701 174.467C298.64 174.467 299.39 174.688 299.95 175.13C300.515 175.572 300.798 176.146 300.798 176.853H298.822C298.822 176.57 298.731 176.338 298.549 176.155C298.367 175.968 298.082 175.875 297.694 175.875C297.362 175.875 297.104 175.95 296.922 176.101C296.74 176.251 296.648 176.442 296.648 176.675C296.648 176.894 296.751 177.071 296.956 177.208C297.166 177.34 297.517 177.456 298.009 177.557C298.501 177.652 298.916 177.762 299.253 177.885C300.297 178.268 300.818 178.931 300.818 179.874C300.818 180.549 300.529 181.095 299.95 181.515C299.371 181.929 298.624 182.137 297.708 182.137C297.088 182.137 296.537 182.027 296.054 181.809C295.575 181.585 295.199 181.282 294.926 180.899C294.652 180.512 294.516 180.095 294.516 179.648H296.389C296.407 179.999 296.537 180.268 296.778 180.455C297.02 180.642 297.343 180.735 297.749 180.735C298.127 180.735 298.412 180.665 298.604 180.523C298.799 180.378 298.897 180.188 298.897 179.956Z" fill="white"/>
<path d="M240.32 22.5312L242.392 18.0469H244.634L241.366 24.3906V28H239.281V24.3906L236.014 18.0469H238.263L240.32 22.5312ZM244.654 24.2334C244.654 23.4997 244.796 22.8457 245.078 22.2715C245.361 21.6973 245.766 21.2529 246.295 20.9385C246.828 20.624 247.446 20.4668 248.147 20.4668C249.146 20.4668 249.959 20.7721 250.588 21.3828C251.221 21.9935 251.575 22.8229 251.647 23.8711L251.661 24.377C251.661 25.5117 251.344 26.4232 250.711 27.1113C250.077 27.7949 249.228 28.1367 248.161 28.1367C247.095 28.1367 246.243 27.7949 245.604 27.1113C244.971 26.4277 244.654 25.498 244.654 24.3223V24.2334ZM246.63 24.377C246.63 25.0788 246.762 25.6165 247.026 25.9902C247.291 26.3594 247.669 26.5439 248.161 26.5439C248.64 26.5439 249.013 26.3617 249.282 25.9971C249.551 25.6279 249.686 25.04 249.686 24.2334C249.686 23.5452 249.551 23.012 249.282 22.6338C249.013 22.2555 248.635 22.0664 248.147 22.0664C247.664 22.0664 247.291 22.2555 247.026 22.6338C246.762 23.0075 246.63 23.5885 246.63 24.377ZM257.308 27.248C256.82 27.8405 256.146 28.1367 255.284 28.1367C254.491 28.1367 253.885 27.9089 253.466 27.4531C253.051 26.9974 252.839 26.3298 252.83 25.4502V20.6035H254.806V25.3818C254.806 26.152 255.157 26.5371 255.858 26.5371C256.528 26.5371 256.989 26.3047 257.239 25.8398V20.6035H259.222V28H257.362L257.308 27.248ZM264.868 22.4561C264.599 22.4196 264.362 22.4014 264.157 22.4014C263.41 22.4014 262.92 22.6543 262.688 23.1602V28H260.712V20.6035H262.578L262.633 21.4854C263.029 20.8063 263.578 20.4668 264.28 20.4668C264.499 20.4668 264.704 20.4964 264.896 20.5557L264.868 22.4561ZM276.523 19.708H273.475V28H271.424V19.708H268.416V18.0469H276.523V19.708ZM279.654 28H277.672V20.6035H279.654V28ZM277.556 18.6895C277.556 18.3932 277.654 18.1494 277.85 17.958C278.05 17.7666 278.321 17.6709 278.663 17.6709C279 17.6709 279.269 17.7666 279.47 17.958C279.67 18.1494 279.771 18.3932 279.771 18.6895C279.771 18.9902 279.668 19.2363 279.463 19.4277C279.262 19.6191 278.996 19.7148 278.663 19.7148C278.33 19.7148 278.062 19.6191 277.856 19.4277C277.656 19.2363 277.556 18.9902 277.556 18.6895ZM283.653 18.7852V20.6035H284.918V22.0527H283.653V25.7441C283.653 26.0176 283.706 26.2135 283.811 26.332C283.915 26.4505 284.116 26.5098 284.412 26.5098C284.631 26.5098 284.825 26.4938 284.993 26.4619V27.959C284.606 28.0775 284.207 28.1367 283.797 28.1367C282.411 28.1367 281.705 27.4372 281.678 26.0381V22.0527H280.598V20.6035H281.678V18.7852H283.653ZM288.104 28H286.121V17.5H288.104V28ZM293.142 28.1367C292.057 28.1367 291.173 27.804 290.489 27.1387C289.81 26.4733 289.471 25.5869 289.471 24.4795V24.2881C289.471 23.5452 289.614 22.8822 289.901 22.2988C290.188 21.7109 290.594 21.2598 291.118 20.9453C291.647 20.6263 292.248 20.4668 292.923 20.4668C293.935 20.4668 294.73 20.7858 295.309 21.4238C295.892 22.0618 296.184 22.9665 296.184 24.1377V24.9443H291.474C291.537 25.4274 291.729 25.8148 292.048 26.1064C292.371 26.3981 292.779 26.5439 293.271 26.5439C294.033 26.5439 294.627 26.2682 295.056 25.7168L296.026 26.8037C295.73 27.223 295.329 27.5511 294.823 27.7881C294.317 28.0205 293.757 28.1367 293.142 28.1367ZM292.916 22.0664C292.524 22.0664 292.205 22.1986 291.959 22.4629C291.717 22.7272 291.562 23.1055 291.494 23.5977H294.242V23.4404C294.233 23.0029 294.115 22.6657 293.887 22.4287C293.659 22.1872 293.335 22.0664 292.916 22.0664Z" fill="white"/>
<path d="M28.9395 33.3525H33.2939V35H26.8887V25.0469H28.9395V33.3525ZM37.751 35.1367C36.6663 35.1367 35.7822 34.804 35.0986 34.1387C34.4196 33.4733 34.0801 32.5869 34.0801 31.4795V31.2881C34.0801 30.5452 34.2236 29.8822 34.5107 29.2988C34.7979 28.7109 35.2035 28.2598 35.7275 27.9453C36.2562 27.6263 36.8577 27.4668 37.5322 27.4668C38.5439 27.4668 39.3392 27.7858 39.918 28.4238C40.5013 29.0618 40.793 29.9665 40.793 31.1377V31.9443H36.083C36.1468 32.4274 36.3382 32.8148 36.6572 33.1064C36.9808 33.3981 37.3887 33.5439 37.8809 33.5439C38.6419 33.5439 39.2367 33.2682 39.665 32.7168L40.6357 33.8037C40.3395 34.223 39.9385 34.5511 39.4326 34.7881C38.9268 35.0205 38.3662 35.1367 37.751 35.1367ZM37.5254 29.0664C37.1335 29.0664 36.8145 29.1986 36.5684 29.4629C36.3268 29.7272 36.1719 30.1055 36.1035 30.5977H38.8516V30.4404C38.8424 30.0029 38.724 29.6657 38.4961 29.4287C38.2682 29.1872 37.9447 29.0664 37.5254 29.0664ZM46.207 35C46.1159 34.8223 46.0498 34.6012 46.0088 34.3369C45.5303 34.8701 44.9082 35.1367 44.1426 35.1367C43.418 35.1367 42.8164 34.9271 42.3379 34.5078C41.8639 34.0885 41.627 33.5599 41.627 32.9219C41.627 32.138 41.9163 31.5365 42.4951 31.1172C43.0785 30.6979 43.9193 30.486 45.0176 30.4814H45.9268V30.0576C45.9268 29.7158 45.8379 29.4424 45.6602 29.2373C45.487 29.0322 45.2113 28.9297 44.833 28.9297C44.5003 28.9297 44.2383 29.0094 44.0469 29.1689C43.86 29.3285 43.7666 29.5472 43.7666 29.8252H41.791C41.791 29.3968 41.9232 29.0003 42.1875 28.6357C42.4518 28.2712 42.8255 27.9863 43.3086 27.7812C43.7917 27.5716 44.334 27.4668 44.9355 27.4668C45.847 27.4668 46.5693 27.6969 47.1025 28.1572C47.6403 28.613 47.9092 29.2555 47.9092 30.085V33.291C47.9137 33.9928 48.0117 34.5238 48.2031 34.8838V35H46.207ZM44.5732 33.626C44.8649 33.626 45.1338 33.5622 45.3799 33.4346C45.626 33.3024 45.8083 33.127 45.9268 32.9082V31.6367H45.1885C44.1995 31.6367 43.6732 31.9785 43.6094 32.6621L43.6025 32.7783C43.6025 33.0244 43.6891 33.2272 43.8623 33.3867C44.0355 33.5462 44.2725 33.626 44.5732 33.626ZM49.1191 31.2471C49.1191 30.0941 49.3766 29.1758 49.8916 28.4922C50.4111 27.8086 51.1198 27.4668 52.0176 27.4668C52.7376 27.4668 53.3324 27.7357 53.8018 28.2734V24.5H55.7842V35H54L53.9043 34.2139C53.4121 34.8291 52.7786 35.1367 52.0039 35.1367C51.1335 35.1367 50.4339 34.7949 49.9053 34.1113C49.3812 33.4232 49.1191 32.4684 49.1191 31.2471ZM51.0947 31.3906C51.0947 32.0833 51.2155 32.6143 51.457 32.9834C51.6986 33.3525 52.0495 33.5371 52.5098 33.5371C53.1204 33.5371 53.5511 33.2796 53.8018 32.7646V29.8457C53.5557 29.3307 53.1296 29.0732 52.5234 29.0732C51.571 29.0732 51.0947 29.8457 51.0947 31.3906ZM60.7197 35.1367C59.6351 35.1367 58.751 34.804 58.0674 34.1387C57.3883 33.4733 57.0488 32.5869 57.0488 31.4795V31.2881C57.0488 30.5452 57.1924 29.8822 57.4795 29.2988C57.7666 28.7109 58.1722 28.2598 58.6963 27.9453C59.2249 27.6263 59.8265 27.4668 60.501 27.4668C61.5127 27.4668 62.3079 27.7858 62.8867 28.4238C63.4701 29.0618 63.7617 29.9665 63.7617 31.1377V31.9443H59.0518C59.1156 32.4274 59.307 32.8148 59.626 33.1064C59.9495 33.3981 60.3574 33.5439 60.8496 33.5439C61.6107 33.5439 62.2054 33.2682 62.6338 32.7168L63.6045 33.8037C63.3083 34.223 62.9072 34.5511 62.4014 34.7881C61.8955 35.0205 61.335 35.1367 60.7197 35.1367ZM60.4941 29.0664C60.1022 29.0664 59.7832 29.1986 59.5371 29.4629C59.2956 29.7272 59.1406 30.1055 59.0723 30.5977H61.8203V30.4404C61.8112 30.0029 61.6927 29.6657 61.4648 29.4287C61.237 29.1872 60.9134 29.0664 60.4941 29.0664ZM69.0459 29.4561C68.777 29.4196 68.54 29.4014 68.335 29.4014C67.5876 29.4014 67.0977 29.6543 66.8652 30.1602V35H64.8896V27.6035H66.7559L66.8105 28.4854C67.207 27.8063 67.7562 27.4668 68.458 27.4668C68.6768 27.4668 68.8818 27.4964 69.0732 27.5557L69.0459 29.4561ZM76.668 31.3701C76.668 32.555 76.415 33.4801 75.9092 34.1455C75.4033 34.8063 74.6969 35.1367 73.79 35.1367C72.988 35.1367 72.3477 34.8291 71.8691 34.2139L71.7803 35H70.0029V24.5H71.9785V28.2666C72.4342 27.7334 73.0335 27.4668 73.7764 27.4668C74.6787 27.4668 75.3851 27.7995 75.8955 28.4648C76.4105 29.1257 76.668 30.0576 76.668 31.2607V31.3701ZM74.6924 31.2266C74.6924 30.4792 74.5739 29.9346 74.3369 29.5928C74.0999 29.2464 73.7467 29.0732 73.2773 29.0732C72.6484 29.0732 72.2155 29.3307 71.9785 29.8457V32.7646C72.2201 33.2842 72.6576 33.5439 73.291 33.5439C73.929 33.5439 74.3483 33.2295 74.5488 32.6006C74.6445 32.2998 74.6924 31.8418 74.6924 31.2266ZM77.584 31.2334C77.584 30.4997 77.7253 29.8457 78.0078 29.2715C78.2904 28.6973 78.696 28.2529 79.2246 27.9385C79.7578 27.624 80.3753 27.4668 81.0771 27.4668C82.0752 27.4668 82.8887 27.7721 83.5176 28.3828C84.151 28.9935 84.5042 29.8229 84.5771 30.8711L84.5908 31.377C84.5908 32.5117 84.2741 33.4232 83.6406 34.1113C83.0072 34.7949 82.1572 35.1367 81.0908 35.1367C80.0244 35.1367 79.1722 34.7949 78.5342 34.1113C77.9007 33.4277 77.584 32.498 77.584 31.3223V31.2334ZM79.5596 31.377C79.5596 32.0788 79.6917 32.6165 79.9561 32.9902C80.2204 33.3594 80.5986 33.5439 81.0908 33.5439C81.5693 33.5439 81.943 33.3617 82.2119 32.9971C82.4808 32.6279 82.6152 32.04 82.6152 31.2334C82.6152 30.5452 82.4808 30.012 82.2119 29.6338C81.943 29.2555 81.5648 29.0664 81.0771 29.0664C80.5941 29.0664 80.2204 29.2555 79.9561 29.6338C79.6917 30.0075 79.5596 30.5885 79.5596 31.377ZM90.0938 35C90.0026 34.8223 89.9365 34.6012 89.8955 34.3369C89.417 34.8701 88.7949 35.1367 88.0293 35.1367C87.3047 35.1367 86.7031 34.9271 86.2246 34.5078C85.7507 34.0885 85.5137 33.5599 85.5137 32.9219C85.5137 32.138 85.8031 31.5365 86.3818 31.1172C86.9652 30.6979 87.806 30.486 88.9043 30.4814H89.8135V30.0576C89.8135 29.7158 89.7246 29.4424 89.5469 29.2373C89.3737 29.0322 89.098 28.9297 88.7197 28.9297C88.387 28.9297 88.125 29.0094 87.9336 29.1689C87.7467 29.3285 87.6533 29.5472 87.6533 29.8252H85.6777C85.6777 29.3968 85.8099 29.0003 86.0742 28.6357C86.3385 28.2712 86.7122 27.9863 87.1953 27.7812C87.6784 27.5716 88.2207 27.4668 88.8223 27.4668C89.7337 27.4668 90.4561 27.6969 90.9893 28.1572C91.527 28.613 91.7959 29.2555 91.7959 30.085V33.291C91.8005 33.9928 91.8984 34.5238 92.0898 34.8838V35H90.0938ZM88.46 33.626C88.7516 33.626 89.0205 33.5622 89.2666 33.4346C89.5127 33.3024 89.695 33.127 89.8135 32.9082V31.6367H89.0752C88.0863 31.6367 87.5599 31.9785 87.4961 32.6621L87.4893 32.7783C87.4893 33.0244 87.5758 33.2272 87.749 33.3867C87.9222 33.5462 88.1592 33.626 88.46 33.626ZM97.4697 29.4561C97.2008 29.4196 96.9639 29.4014 96.7588 29.4014C96.0114 29.4014 95.5215 29.6543 95.2891 30.1602V35H93.3135V27.6035H95.1797L95.2344 28.4854C95.6309 27.8063 96.18 27.4668 96.8818 27.4668C97.1006 27.4668 97.3057 27.4964 97.4971 27.5557L97.4697 29.4561ZM97.9824 31.2471C97.9824 30.0941 98.2399 29.1758 98.7549 28.4922C99.2744 27.8086 99.9831 27.4668 100.881 27.4668C101.601 27.4668 102.196 27.7357 102.665 28.2734V24.5H104.647V35H102.863L102.768 34.2139C102.275 34.8291 101.642 35.1367 100.867 35.1367C99.9967 35.1367 99.2972 34.7949 98.7686 34.1113C98.2445 33.4232 97.9824 32.4684 97.9824 31.2471ZM99.958 31.3906C99.958 32.0833 100.079 32.6143 100.32 32.9834C100.562 33.3525 100.913 33.5371 101.373 33.5371C101.984 33.5371 102.414 33.2796 102.665 32.7646V29.8457C102.419 29.3307 101.993 29.0732 101.387 29.0732C100.434 29.0732 99.958 29.8457 99.958 31.3906ZM110.185 32.9561C110.185 32.7145 110.064 32.5254 109.822 32.3887C109.585 32.2474 109.202 32.1221 108.674 32.0127C106.915 31.6436 106.035 30.8962 106.035 29.7705C106.035 29.1143 106.306 28.5674 106.849 28.1299C107.396 27.6878 108.109 27.4668 108.988 27.4668C109.927 27.4668 110.677 27.6878 111.237 28.1299C111.802 28.5719 112.085 29.1462 112.085 29.8525H110.109C110.109 29.57 110.018 29.3376 109.836 29.1553C109.654 28.9684 109.369 28.875 108.981 28.875C108.649 28.875 108.391 28.9502 108.209 29.1006C108.027 29.251 107.936 29.4424 107.936 29.6748C107.936 29.8936 108.038 30.0713 108.243 30.208C108.453 30.3402 108.804 30.4564 109.296 30.5566C109.788 30.6523 110.203 30.7617 110.54 30.8848C111.584 31.2676 112.105 31.9307 112.105 32.874C112.105 33.5485 111.816 34.0954 111.237 34.5146C110.659 34.9294 109.911 35.1367 108.995 35.1367C108.375 35.1367 107.824 35.0273 107.341 34.8086C106.862 34.5853 106.486 34.2822 106.213 33.8994C105.939 33.512 105.803 33.0951 105.803 32.6484H107.676C107.694 32.9993 107.824 33.2682 108.065 33.4551C108.307 33.6419 108.631 33.7354 109.036 33.7354C109.414 33.7354 109.699 33.6647 109.891 33.5234C110.087 33.3776 110.185 33.1885 110.185 32.9561Z" fill="white"/>
<defs>
<filter id="filter0_dd_78_161" x="0" y="0" width="196" height="233" filterUnits="userSpaceOnUse" color-interpolation-filters="sRGB">
<feFlood flood-opacity="0" result="BackgroundImageFix"/>
<feColorMatrix in="SourceAlpha" type="matrix" values="0 0 0 0 0 0 0 0 0 0 0 0 0 0 0 0 0 0 127 0" result="hardAlpha"/>
<feOffset dy="4"/>
<feGaussianBlur stdDeviation="2"/>
<feComposite in2="hardAlpha" operator="out"/>
<feColorMatrix type="matrix" values="0 0 0 0 0 0 0 0 0 0 0 0 0 0 0 0 0 0 0.25 0"/>
<feBlend mode="normal" in2="BackgroundImageFix" result="effect1_dropShadow_78_161"/>
<feColorMatrix in="SourceAlpha" type="matrix" values="0 0 0 0 0 0 0 0 0 0 0 0 0 0 0 0 0 0 127 0" result="hardAlpha"/>
<feOffset dy="4"/>
<feGaussianBlur stdDeviation="2"/>
<feComposite in2="hardAlpha" operator="out"/>
<feColorMatrix type="matrix" values="0 0 0 0 0 0 0 0 0 0 0 0 0 0 0 0 0 0 0.25 0"/>
<feBlend mode="normal" in2="effect1_dropShadow_78_161" result="effect2_dropShadow_78_161"/>
<feBlend mode="normal" in="SourceGraphic" in2="effect2_dropShadow_78_161" result="shape"/>
</filter>
<filter id="filter1_dd_78_161" x="213" y="0" width="197" height="77" filterUnits="userSpaceOnUse" color-interpolation-filters="sRGB">
<feFlood flood-opacity="0" result="BackgroundImageFix"/>
<feColorMatrix in="SourceAlpha" type="matrix" values="0 0 0 0 0 0 0 0 0 0 0 0 0 0 0 0 0 0 127 0" result="hardAlpha"/>
<feOffset dy="4"/>
<feGaussianBlur stdDeviation="2"/>
<feComposite in2="hardAlpha" operator="out"/>
<feColorMatrix type="matrix" values="0 0 0 0 0 0 0 0 0 0 0 0 0 0 0 0 0 0 0.25 0"/>
<feBlend mode="normal" in2="BackgroundImageFix" result="effect1_dropShadow_78_161"/>
<feColorMatrix in="SourceAlpha" type="matrix" values="0 0 0 0 0 0 0 0 0 0 0 0 0 0 0 0 0 0 127 0" result="hardAlpha"/>
<feOffset dy="4"/>
<feGaussianBlur stdDeviation="2"/>
<feComposite in2="hardAlpha" operator="out"/>
<feColorMatrix type="matrix" values="0 0 0 0 0 0 0 0 0 0 0 0 0 0 0 0 0 0 0.25 0"/>
<feBlend mode="normal" in2="effect1_dropShadow_78_161" result="effect2_dropShadow_78_161"/>
<feBlend mode="normal" in="SourceGraphic" in2="effect2_dropShadow_78_161" result="shape"/>
</filter>
<filter id="filter2_dd_78_161" x="213" y="78" width="197" height="77" filterUnits="userSpaceOnUse" color-interpolation-filters="sRGB">
<feFlood flood-opacity="0" result="BackgroundImageFix"/>
<feColorMatrix in="SourceAlpha" type="matrix" values="0 0 0 0 0 0 0 0 0 0 0 0 0 0 0 0 0 0 127 0" result="hardAlpha"/>
<feOffset dy="4"/>
<feGaussianBlur stdDeviation="2"/>
<feComposite in2="hardAlpha" operator="out"/>
<feColorMatrix type="matrix" values="0 0 0 0 0 0 0 0 0 0 0 0 0 0 0 0 0 0 0.25 0"/>
<feBlend mode="normal" in2="BackgroundImageFix" result="effect1_dropShadow_78_161"/>
<feColorMatrix in="SourceAlpha" type="matrix" values="0 0 0 0 0 0 0 0 0 0 0 0 0 0 0 0 0 0 127 0" result="hardAlpha"/>
<feOffset dy="4"/>
<feGaussianBlur stdDeviation="2"/>
<feComposite in2="hardAlpha" operator="out"/>
<feColorMatrix type="matrix" values="0 0 0 0 0 0 0 0 0 0 0 0 0 0 0 0 0 0 0.25 0"/>
<feBlend mode="normal" in2="effect1_dropShadow_78_161" result="effect2_dropShadow_78_161"/>
<feBlend mode="normal" in="SourceGraphic" in2="effect2_dropShadow_78_161" result="shape"/>
</filter>
<filter id="filter3_dd_78_161" x="213" y="156" width="197" height="77" filterUnits="userSpaceOnUse" color-interpolation-filters="sRGB">
<feFlood flood-opacity="0" result="BackgroundImageFix"/>
<feColorMatrix in="SourceAlpha" type="matrix" values="0 0 0 0 0 0 0 0 0 0 0 0 0 0 0 0 0 0 127 0" result="hardAlpha"/>
<feOffset dy="4"/>
<feGaussianBlur stdDeviation="2"/>
<feComposite in2="hardAlpha" operator="out"/>
<feColorMatrix type="matrix" values="0 0 0 0 0 0 0 0 0 0 0 0 0 0 0 0 0 0 0.25 0"/>
<feBlend mode="normal" in2="BackgroundImageFix" result="effect1_dropShadow_78_161"/>
<feColorMatrix in="SourceAlpha" type="matrix" values="0 0 0 0 0 0 0 0 0 0 0 0 0 0 0 0 0 0 127 0" result="hardAlpha"/>
<feOffset dy="4"/>
<feGaussianBlur stdDeviation="2"/>
<feComposite in2="hardAlpha" operator="out"/>
<feColorMatrix type="matrix" values="0 0 0 0 0 0 0 0 0 0 0 0 0 0 0 0 0 0 0.25 0"/>
<feBlend mode="normal" in2="effect1_dropShadow_78_161" result="effect2_dropShadow_78_161"/>
<feBlend mode="normal" in="SourceGraphic" in2="effect2_dropShadow_78_161" result="shape"/>
</filter>
<filter id="filter4_dd_78_161" x="427" y="0" width="196" height="233" filterUnits="userSpaceOnUse" color-interpolation-filters="sRGB">
<feFlood flood-opacity="0" result="BackgroundImageFix"/>
<feColorMatrix in="SourceAlpha" type="matrix" values="0 0 0 0 0 0 0 0 0 0 0 0 0 0 0 0 0 0 127 0" result="hardAlpha"/>
<feOffset dy="4"/>
<feGaussianBlur stdDeviation="2"/>
<feComposite in2="hardAlpha" operator="out"/>
<feColorMatrix type="matrix" values="0 0 0 0 0 0 0 0 0 0 0 0 0 0 0 0 0 0 0.25 0"/>
<feBlend mode="normal" in2="BackgroundImageFix" result="effect1_dropShadow_78_161"/>
<feColorMatrix in="SourceAlpha" type="matrix" values="0 0 0 0 0 0 0 0 0 0 0 0 0 0 0 0 0 0 127 0" result="hardAlpha"/>
<feOffset dy="4"/>
<feGaussianBlur stdDeviation="2"/>
<feComposite in2="hardAlpha" operator="out"/>
<feColorMatrix type="matrix" values="0 0 0 0 0 0 0 0 0 0 0 0 0 0 0 0 0 0 0.25 0"/>
<feBlend mode="normal" in2="effect1_dropShadow_78_161" result="effect2_dropShadow_78_161"/>
<feBlend mode="normal" in="SourceGraphic" in2="effect2_dropShadow_78_161" result="shape"/>
</filter>
</defs>
</svg>
