<svg width="667" height="233" viewBox="0 0 667 233" fill="none" xmlns="http://www.w3.org/2000/svg">
<g filter="url(#filter0_d_75_146)">
<rect x="122" y="56" width="541" height="169" rx="20" fill="#36393F"/>
</g>
<path d="M122 76C122 64.9543 130.954 56 142 56H329V225H142C130.954 225 122 216.046 122 205V76Z" fill="#2F3136"/>
<g filter="url(#filter1_dd_75_146)">
<path d="M4 40C4 17.9086 21.9086 0 44 0H289C311.091 0 329 17.9086 329 40V109C329 131.091 311.091 149 289 149H44C21.9086 149 4 131.091 4 109V40Z" fill="black" fill-opacity="0.36" shape-rendering="crispEdges"/>
<path d="M44 1H289C310.539 1 328 18.4609 328 40V109C328 130.539 310.539 148 289 148H44C22.4609 148 5 130.539 5 109V40C5 18.4609 22.4609 1 44 1Z" stroke="black" stroke-width="2" shape-rendering="crispEdges"/>
</g>
<path d="M39.7793 34.8818H45.3779V37H37.1426V24.2031H39.7793V34.8818ZM51.1084 37.1758C49.7139 37.1758 48.5771 36.748 47.6982 35.8926C46.8252 35.0371 46.3887 33.8975 46.3887 32.4736V32.2275C46.3887 31.2725 46.5732 30.4199 46.9424 29.6699C47.3115 28.9141 47.833 28.334 48.5068 27.9297C49.1865 27.5195 49.96 27.3145 50.8271 27.3145C52.1279 27.3145 53.1504 27.7246 53.8945 28.5449C54.6445 29.3652 55.0195 30.5283 55.0195 32.0342V33.0713H48.9639C49.0459 33.6924 49.292 34.1904 49.7021 34.5654C50.1182 34.9404 50.6426 35.1279 51.2754 35.1279C52.2539 35.1279 53.0186 34.7734 53.5693 34.0645L54.8174 35.4619C54.4365 36.001 53.9209 36.4229 53.2705 36.7275C52.6201 37.0264 51.8994 37.1758 51.1084 37.1758ZM50.8184 29.3711C50.3145 29.3711 49.9043 29.541 49.5879 29.8809C49.2773 30.2207 49.0781 30.707 48.9902 31.3398H52.5234V31.1377C52.5117 30.5752 52.3594 30.1416 52.0664 29.8369C51.7734 29.5264 51.3574 29.3711 50.8184 29.3711ZM61.9805 37C61.8633 36.7715 61.7783 36.4873 61.7256 36.1475C61.1104 36.833 60.3105 37.1758 59.3262 37.1758C58.3945 37.1758 57.6211 36.9062 57.0059 36.3672C56.3965 35.8281 56.0918 35.1484 56.0918 34.3281C56.0918 33.3203 56.4639 32.5469 57.208 32.0078C57.958 31.4688 59.0391 31.1963 60.4512 31.1904H61.6201V30.6455C61.6201 30.2061 61.5059 29.8545 61.2773 29.5908C61.0547 29.3271 60.7002 29.1953 60.2139 29.1953C59.7861 29.1953 59.4492 29.2979 59.2031 29.5029C58.9629 29.708 58.8428 29.9893 58.8428 30.3467H56.3027C56.3027 29.7959 56.4727 29.2861 56.8125 28.8174C57.1523 28.3486 57.6328 27.9824 58.2539 27.7188C58.875 27.4492 59.5723 27.3145 60.3457 27.3145C61.5176 27.3145 62.4463 27.6104 63.1318 28.2021C63.8232 28.7881 64.1689 29.6143 64.1689 30.6807V34.8027C64.1748 35.7051 64.3008 36.3877 64.5469 36.8506V37H61.9805ZM59.8799 35.2334C60.2549 35.2334 60.6006 35.1514 60.917 34.9873C61.2334 34.8174 61.4678 34.5918 61.6201 34.3105V32.6758H60.6709C59.3994 32.6758 58.7227 33.1152 58.6406 33.9941L58.6318 34.1436C58.6318 34.46 58.7432 34.7207 58.9658 34.9258C59.1885 35.1309 59.4932 35.2334 59.8799 35.2334ZM65.7246 32.1748C65.7246 30.6924 66.0557 29.5117 66.7178 28.6328C67.3857 27.7539 68.2969 27.3145 69.4512 27.3145C70.377 27.3145 71.1416 27.6602 71.7451 28.3516V23.5H74.2939V37H72L71.877 35.9893C71.2441 36.7803 70.4297 37.1758 69.4336 37.1758C68.3145 37.1758 67.415 36.7363 66.7354 35.8574C66.0615 34.9727 65.7246 33.7451 65.7246 32.1748ZM68.2646 32.3594C68.2646 33.25 68.4199 33.9326 68.7305 34.4072C69.041 34.8818 69.4922 35.1191 70.084 35.1191C70.8691 35.1191 71.4229 34.7881 71.7451 34.126V30.373C71.4287 29.7109 70.8809 29.3799 70.1016 29.3799C68.877 29.3799 68.2646 30.373 68.2646 32.3594ZM80.6396 37.1758C79.2451 37.1758 78.1084 36.748 77.2295 35.8926C76.3564 35.0371 75.9199 33.8975 75.9199 32.4736V32.2275C75.9199 31.2725 76.1045 30.4199 76.4736 29.6699C76.8428 28.9141 77.3643 28.334 78.0381 27.9297C78.7178 27.5195 79.4912 27.3145 80.3584 27.3145C81.6592 27.3145 82.6816 27.7246 83.4258 28.5449C84.1758 29.3652 84.5508 30.5283 84.5508 32.0342V33.0713H78.4951C78.5771 33.6924 78.8232 34.1904 79.2334 34.5654C79.6494 34.9404 80.1738 35.1279 80.8066 35.1279C81.7852 35.1279 82.5498 34.7734 83.1006 34.0645L84.3486 35.4619C83.9678 36.001 83.4521 36.4229 82.8018 36.7275C82.1514 37.0264 81.4307 37.1758 80.6396 37.1758ZM80.3496 29.3711C79.8457 29.3711 79.4355 29.541 79.1191 29.8809C78.8086 30.2207 78.6094 30.707 78.5215 31.3398H82.0547V31.1377C82.043 30.5752 81.8906 30.1416 81.5977 29.8369C81.3047 29.5264 80.8887 29.3711 80.3496 29.3711ZM91.3447 29.8721C90.999 29.8252 90.6943 29.8018 90.4307 29.8018C89.4697 29.8018 88.8398 30.127 88.541 30.7773V37H86.001V27.4902H88.4004L88.4707 28.624C88.9805 27.751 89.6865 27.3145 90.5889 27.3145C90.8701 27.3145 91.1338 27.3525 91.3799 27.4287L91.3447 29.8721ZM101.145 32.333C101.145 33.8564 100.819 35.0459 100.169 35.9014C99.5186 36.751 98.6104 37.1758 97.4443 37.1758C96.4131 37.1758 95.5898 36.7803 94.9746 35.9893L94.8604 37H92.5752V23.5H95.1152V28.3428C95.7012 27.6572 96.4717 27.3145 97.4268 27.3145C98.5869 27.3145 99.4951 27.7422 100.151 28.5977C100.813 29.4473 101.145 30.6455 101.145 32.1924V32.333ZM98.6045 32.1484C98.6045 31.1875 98.4521 30.4873 98.1475 30.0479C97.8428 29.6025 97.3887 29.3799 96.7852 29.3799C95.9766 29.3799 95.4199 29.7109 95.1152 30.373V34.126C95.4258 34.7939 95.9883 35.1279 96.8027 35.1279C97.623 35.1279 98.1621 34.7236 98.4199 33.915C98.543 33.5283 98.6045 32.9395 98.6045 32.1484ZM102.322 32.1572C102.322 31.2139 102.504 30.373 102.867 29.6348C103.23 28.8965 103.752 28.3252 104.432 27.9209C105.117 27.5166 105.911 27.3145 106.813 27.3145C108.097 27.3145 109.143 27.707 109.951 28.4922C110.766 29.2773 111.22 30.3438 111.313 31.6914L111.331 32.3418C111.331 33.8008 110.924 34.9727 110.109 35.8574C109.295 36.7363 108.202 37.1758 106.831 37.1758C105.46 37.1758 104.364 36.7363 103.544 35.8574C102.729 34.9785 102.322 33.7832 102.322 32.2715V32.1572ZM104.862 32.3418C104.862 33.2441 105.032 33.9355 105.372 34.416C105.712 34.8906 106.198 35.1279 106.831 35.1279C107.446 35.1279 107.927 34.8936 108.272 34.4248C108.618 33.9502 108.791 33.1943 108.791 32.1572C108.791 31.2725 108.618 30.5869 108.272 30.1006C107.927 29.6143 107.44 29.3711 106.813 29.3711C106.192 29.3711 105.712 29.6143 105.372 30.1006C105.032 30.5811 104.862 31.3281 104.862 32.3418ZM118.406 37C118.289 36.7715 118.204 36.4873 118.151 36.1475C117.536 36.833 116.736 37.1758 115.752 37.1758C114.82 37.1758 114.047 36.9062 113.432 36.3672C112.822 35.8281 112.518 35.1484 112.518 34.3281C112.518 33.3203 112.89 32.5469 113.634 32.0078C114.384 31.4688 115.465 31.1963 116.877 31.1904H118.046V30.6455C118.046 30.2061 117.932 29.8545 117.703 29.5908C117.48 29.3271 117.126 29.1953 116.64 29.1953C116.212 29.1953 115.875 29.2979 115.629 29.5029C115.389 29.708 115.269 29.9893 115.269 30.3467H112.729C112.729 29.7959 112.898 29.2861 113.238 28.8174C113.578 28.3486 114.059 27.9824 114.68 27.7188C115.301 27.4492 115.998 27.3145 116.771 27.3145C117.943 27.3145 118.872 27.6104 119.558 28.2021C120.249 28.7881 120.595 29.6143 120.595 30.6807V34.8027C120.601 35.7051 120.727 36.3877 120.973 36.8506V37H118.406ZM116.306 35.2334C116.681 35.2334 117.026 35.1514 117.343 34.9873C117.659 34.8174 117.894 34.5918 118.046 34.3105V32.6758H117.097C115.825 32.6758 115.148 33.1152 115.066 33.9941L115.058 34.1436C115.058 34.46 115.169 34.7207 115.392 34.9258C115.614 35.1309 115.919 35.2334 116.306 35.2334ZM127.89 29.8721C127.544 29.8252 127.239 29.8018 126.976 29.8018C126.015 29.8018 125.385 30.127 125.086 30.7773V37H122.546V27.4902H124.945L125.016 28.624C125.525 27.751 126.231 27.3145 127.134 27.3145C127.415 27.3145 127.679 27.3525 127.925 27.4287L127.89 29.8721ZM128.549 32.1748C128.549 30.6924 128.88 29.5117 129.542 28.6328C130.21 27.7539 131.121 27.3145 132.275 27.3145C133.201 27.3145 133.966 27.6602 134.569 28.3516V23.5H137.118V37H134.824L134.701 35.9893C134.068 36.7803 133.254 37.1758 132.258 37.1758C131.139 37.1758 130.239 36.7363 129.56 35.8574C128.886 34.9727 128.549 33.7451 128.549 32.1748ZM131.089 32.3594C131.089 33.25 131.244 33.9326 131.555 34.4072C131.865 34.8818 132.316 35.1191 132.908 35.1191C133.693 35.1191 134.247 34.7881 134.569 34.126V30.373C134.253 29.7109 133.705 29.3799 132.926 29.3799C131.701 29.3799 131.089 30.373 131.089 32.3594ZM144.237 34.3721C144.237 34.0615 144.082 33.8184 143.771 33.6426C143.467 33.4609 142.975 33.2998 142.295 33.1592C140.033 32.6846 138.902 31.7236 138.902 30.2764C138.902 29.4326 139.251 28.7295 139.948 28.167C140.651 27.5986 141.568 27.3145 142.699 27.3145C143.906 27.3145 144.87 27.5986 145.591 28.167C146.317 28.7354 146.681 29.4736 146.681 30.3818H144.141C144.141 30.0186 144.023 29.7197 143.789 29.4854C143.555 29.2451 143.188 29.125 142.69 29.125C142.263 29.125 141.932 29.2217 141.697 29.415C141.463 29.6084 141.346 29.8545 141.346 30.1533C141.346 30.4346 141.478 30.6631 141.741 30.8389C142.011 31.0088 142.462 31.1582 143.095 31.2871C143.728 31.4102 144.261 31.5508 144.694 31.709C146.036 32.2012 146.707 33.0537 146.707 34.2666C146.707 35.1338 146.335 35.8369 145.591 36.376C144.847 36.9092 143.886 37.1758 142.708 37.1758C141.911 37.1758 141.202 37.0352 140.581 36.7539C139.966 36.4668 139.482 36.0771 139.131 35.585C138.779 35.0869 138.604 34.5508 138.604 33.9766H141.012C141.035 34.4277 141.202 34.7734 141.513 35.0137C141.823 35.2539 142.239 35.374 142.761 35.374C143.247 35.374 143.613 35.2832 143.859 35.1016C144.111 34.9141 144.237 34.6709 144.237 34.3721Z" fill="white"/>
<rect x="33" y="56" width="268" height="25" rx="12.5" fill="#2F3136"/>
<rect x="33" y="85" width="268" height="25" rx="12.5" fill="#2F3136"/>
<rect x="33" y="114" width="268" height="25" rx="12.5" fill="#2F3136"/>
<rect x="43" y="61" width="14" height="14" rx="7" fill="#D4AF37"/>
<rect x="43" y="91" width="14" height="14" rx="7" fill="#C0C0C0"/>
<rect x="43" y="120" width="14" height="14" rx="7" fill="#CC8132"/>
<rect x="62" y="63" width="107" height="10" rx="5" fill="#1F2022"/>
<rect x="234" y="64" width="50" height="10" rx="5" fill="#1F2022"/>
<rect x="234" y="93" width="50" height="10" rx="5" fill="#1F2022"/>
<rect x="234" y="122" width="50" height="10" rx="5" fill="#1F2022"/>
<rect x="62" y="93" width="107" height="10" rx="5" fill="#1F2022"/>
<rect x="62" y="122" width="107" height="10" rx="5" fill="#1F2022"/>
<rect x="361" y="61" width="32" height="32" rx="16" fill="#FF0036"/>
<rect x="403" y="66" width="75" height="15" rx="7.5" fill="#2F3136"/>
<rect x="418" y="97" width="207" height="21" rx="4" fill="#42454D"/>
<rect x="361" y="129" width="32" height="32" rx="16" fill="#FAAFBF"/>
<rect x="403" y="134" width="75" height="15" rx="7.5" fill="#2F3136"/>
<rect x="418" y="165" width="207" height="21" rx="4" fill="#42454D"/>
<rect x="418" y="190" width="107" height="21" rx="4" fill="#42454D"/>
<defs>
<filter id="filter0_d_75_146" x="118" y="56" width="549" height="177" filterUnits="userSpaceOnUse" color-interpolation-filters="sRGB">
<feFlood flood-opacity="0" result="BackgroundImageFix"/>
<feColorMatrix in="SourceAlpha" type="matrix" values="0 0 0 0 0 0 0 0 0 0 0 0 0 0 0 0 0 0 127 0" result="hardAlpha"/>
<feOffset dy="4"/>
<feGaussianBlur stdDeviation="2"/>
<feComposite in2="hardAlpha" operator="out"/>
<feColorMatrix type="matrix" values="0 0 0 0 0 0 0 0 0 0 0 0 0 0 0 0 0 0 0.25 0"/>
<feBlend mode="normal" in2="BackgroundImageFix" result="effect1_dropShadow_75_146"/>
<feBlend mode="normal" in="SourceGraphic" in2="effect1_dropShadow_75_146" result="shape"/>
</filter>
<filter id="filter1_dd_75_146" x="0" y="0" width="333" height="157" filterUnits="userSpaceOnUse" color-interpolation-filters="sRGB">
<feFlood flood-opacity="0" result="BackgroundImageFix"/>
<feColorMatrix in="SourceAlpha" type="matrix" values="0 0 0 0 0 0 0 0 0 0 0 0 0 0 0 0 0 0 127 0" result="hardAlpha"/>
<feOffset dy="4"/>
<feGaussianBlur stdDeviation="2"/>
<feComposite in2="hardAlpha" operator="out"/>
<feColorMatrix type="matrix" values="0 0 0 0 0 0 0 0 0 0 0 0 0 0 0 0 0 0 0.25 0"/>
<feBlend mode="normal" in2="BackgroundImageFix" result="effect1_dropShadow_75_146"/>
<feColorMatrix in="SourceAlpha" type="matrix" values="0 0 0 0 0 0 0 0 0 0 0 0 0 0 0 0 0 0 127 0" result="hardAlpha"/>
<feOffset dy="4"/>
<feGaussianBlur stdDeviation="2"/>
<feComposite in2="hardAlpha" operator="out"/>
<feColorMatrix type="matrix" values="0 0 0 0 0 0 0 0 0 0 0 0 0 0 0 0 0 0 0.25 0"/>
<feBlend mode="normal" in2="effect1_dropShadow_75_146" result="effect2_dropShadow_75_146"/>
<feBlend mode="normal" in="SourceGraphic" in2="effect2_dropShadow_75_146" result="shape"/>
</filter>
</defs>
</svg>
