<svg width="667" height="177" viewBox="0 0 667 177" fill="none" xmlns="http://www.w3.org/2000/svg">
<g filter="url(#filter0_d_71_36)">
<rect x="4" width="659" height="169" rx="20" fill="#36393F"/>
</g>
<path d="M4 20C4 8.9543 12.9543 0 24 0H211V169H24C12.9543 169 4 160.046 4 149V20Z" fill="#2F3136"/>
<rect x="8" y="14" width="197" height="30" rx="8" fill="#34373C"/>
<rect x="8" y="51" width="197" height="30" rx="8" fill="#34373C"/>
<rect x="10" y="125" width="197" height="30" rx="8" fill="#34373C"/>
<rect x="8" y="88" width="197" height="30" rx="8" fill="#34373C"/>
<rect x="231" y="8" width="42" height="42" rx="21" fill="#FAAFBF"/>
<rect x="288" y="14" width="75" height="15" rx="7.5" fill="#2F3136"/>
<rect x="375" y="14" width="39" height="15" rx="4" fill="#5865F2"/>
<path d="M379.5 22.5L381.5 24.5L386.5 19.5" stroke="white"/>
<path d="M391.635 25V17.8906H394.125C394.988 17.8906 395.642 18.0566 396.088 18.3887C396.534 18.7174 396.757 19.2008 396.757 19.8389C396.757 20.1872 396.667 20.4948 396.488 20.7617C396.309 21.0254 396.06 21.2191 395.741 21.3428C396.106 21.4339 396.392 21.6178 396.601 21.8945C396.812 22.1712 396.918 22.5098 396.918 22.9102C396.918 23.5938 396.7 24.1113 396.264 24.4629C395.827 24.8145 395.206 24.9935 394.398 25H391.635ZM393.1 21.9043V23.8232H394.354C394.7 23.8232 394.968 23.7419 395.16 23.5791C395.355 23.4131 395.453 23.1852 395.453 22.8955C395.453 22.2445 395.116 21.9141 394.442 21.9043H393.1ZM393.1 20.8691H394.184C394.923 20.8561 395.292 20.5615 395.292 19.9854C395.292 19.6631 395.198 19.432 395.009 19.292C394.823 19.1488 394.529 19.0771 394.125 19.0771H393.1V20.8691ZM403.861 21.6064C403.861 22.3063 403.738 22.9199 403.49 23.4473C403.243 23.9746 402.888 24.3815 402.426 24.668C401.967 24.9544 401.439 25.0977 400.844 25.0977C400.255 25.0977 399.729 24.9561 399.267 24.6729C398.804 24.3896 398.446 23.986 398.192 23.4619C397.938 22.9346 397.81 22.3291 397.807 21.6455V21.2939C397.807 20.5941 397.932 19.9788 398.183 19.4482C398.437 18.9144 398.793 18.5059 399.252 18.2227C399.714 17.9362 400.242 17.793 400.834 17.793C401.426 17.793 401.952 17.9362 402.411 18.2227C402.873 18.5059 403.23 18.9144 403.48 19.4482C403.734 19.9788 403.861 20.5924 403.861 21.2891V21.6064ZM402.377 21.2842C402.377 20.5387 402.243 19.9723 401.977 19.585C401.71 19.1976 401.329 19.0039 400.834 19.0039C400.342 19.0039 399.963 19.196 399.696 19.5801C399.429 19.9609 399.294 20.5208 399.291 21.2598V21.6064C399.291 22.3324 399.424 22.8955 399.691 23.2959C399.958 23.6963 400.342 23.8965 400.844 23.8965C401.335 23.8965 401.713 23.7044 401.977 23.3203C402.24 22.9329 402.374 22.3698 402.377 21.6309V21.2842ZM409.857 19.0771H407.68V25H406.215V19.0771H404.066V17.8906H409.857V19.0771Z" fill="white"/>
<rect x="289" y="35" width="59" height="21" rx="4" fill="#5865F2" fill-opacity="0.43"/>
<rect x="289" y="61" width="53" height="21" rx="4" fill="#5865F2" fill-opacity="0.43"/>
<rect x="288" y="87" width="111" height="21" rx="4" fill="#5865F2" fill-opacity="0.43"/>
<rect x="289" y="113" width="129" height="21" rx="4" fill="#5865F2" fill-opacity="0.43"/>
<rect x="289" y="139" width="88" height="21" rx="4" fill="#5865F2" fill-opacity="0.43"/>
<path d="M289 169C289 166.791 290.791 165 293 165H357C359.209 165 361 166.791 361 169V169H289V169Z" fill="#5865F2" fill-opacity="0.43"/>
<rect x="347" y="61" width="247" height="21" rx="4" fill="#42454D"/>
<rect x="404" y="87" width="255" height="21" rx="4" fill="#42454D"/>
<rect x="423" y="113" width="230" height="21" rx="4" fill="#42454D"/>
<rect x="382" y="139" width="261" height="21" rx="4" fill="#42454D"/>
<rect x="353" y="35" width="276" height="21" rx="4" fill="#42454D"/>
<defs>
<filter id="filter0_d_71_36" x="0" y="0" width="667" height="177" filterUnits="userSpaceOnUse" color-interpolation-filters="sRGB">
<feFlood flood-opacity="0" result="BackgroundImageFix"/>
<feColorMatrix in="SourceAlpha" type="matrix" values="0 0 0 0 0 0 0 0 0 0 0 0 0 0 0 0 0 0 127 0" result="hardAlpha"/>
<feOffset dy="4"/>
<feGaussianBlur stdDeviation="2"/>
<feComposite in2="hardAlpha" operator="out"/>
<feColorMatrix type="matrix" values="0 0 0 0 0 0 0 0 0 0 0 0 0 0 0 0 0 0 0.25 0"/>
<feBlend mode="normal" in2="BackgroundImageFix" result="effect1_dropShadow_71_36"/>
<feBlend mode="normal" in="SourceGraphic" in2="effect1_dropShadow_71_36" result="shape"/>
</filter>
</defs>
</svg>
