<svg width="1119" height="442" viewBox="0 0 1119 442" fill="none" xmlns="http://www.w3.org/2000/svg">
<rect x="578" y="133" width="541" height="309" rx="15" fill="#32363C"/>
<rect y="142" width="541" height="300" rx="15" fill="#32363C"/>
<rect x="2" width="253" height="100" rx="15" fill="#38AFF7"/>
<rect x="290" width="253" height="100" rx="15" fill="#FAC33B"/>
<rect x="578" width="253" height="100" rx="15" fill="#1FDFB2"/>
<rect x="866" width="253" height="100" rx="15" fill="#9394FF"/>
<rect x="27" y="26" width="171" height="17" rx="8.5" fill="#7DC6F2"/>
<rect x="72" y="58" width="111" height="17" rx="8.5" fill="#7DC6F2"/>
<rect x="331" y="26" width="171" height="17" rx="8.5" fill="#F3D27F"/>
<rect x="334" y="58" width="153" height="17" rx="8.5" fill="#F3D27F"/>
<rect x="619" y="26" width="171" height="17" rx="8.5" fill="#6DE3C8"/>
<rect x="934" y="26" width="171" height="17" rx="8.5" fill="#B4B5F7"/>
<rect x="632" y="60" width="118" height="17" rx="8.5" fill="#6DE3C8"/>
<rect x="915" y="60" width="127" height="17" rx="8.5" fill="#B4B5F7"/>
<path d="M31 270C31 265.582 34.5817 262 39 262H99C103.418 262 107 265.582 107 270C107 274.418 103.418 278 99 278H39C34.5817 278 31 274.418 31 270Z" fill="#636569"/>
<rect x="17" y="283" width="123" height="20" rx="10" fill="#636569"/>
<path d="M156 257.094L199.379 242L211.346 245L227.303 260L254.23 331L270.186 349L295.118 347L312.072 335L335.508 301.5L374.901 286.5L402.326 293.5L416.787 307L442.217 313.5L458.673 307L475.128 297L502.553 270.5L522 218V393H156V325V257.094Z" fill="#0F2186" fill-opacity="0.2"/>
<path d="M155.968 286.5L174.916 299.5L187.382 322L207.827 343.5L221.789 348L258.688 332.5L291.1 304.5L312.541 298.75L399.305 335.5L426.73 325.25L443.684 305.75L468.118 256.75L484.074 246.75L499.033 231.25L512.995 233.75L521.971 249V284.812V338.5V393H155.968V286.5Z" fill="#993B18" fill-opacity="0.2"/>
<path d="M156 258C160.5 258 185 248 189.5 245.5C194 243 197.5 241 202 241.5C206.5 242 206.5 241 217.5 249.5C228.5 258 229 265.5 236 281C243 296.5 246 311 251 322.5C256 334 258.5 337.5 263.5 342.5C268.5 347.5 273.5 349.5 282 348.5C290.5 347.5 295.602 346.745 303 342.5C309.357 338.852 312.418 335.721 317 330C322.242 323.456 322.5 319 327 311C331.5 303 338 299.5 348 295C358 290.5 366.5 287 379 286.5C391.5 286 395.5 290 404 295C412.5 300 415.5 308.5 425 311C434.5 313.5 441.259 313.865 451 311C457.535 309.078 461.033 307.296 466.5 303C466.5 303 475.814 296.296 480.5 292C480.5 292 487.814 285.296 492.5 281C497.186 276.704 499.509 272.772 504 267.5C508.491 262.228 512.232 252.738 515.5 242.5C518.586 232.833 520 226.5 520 217" stroke="#595AFF" stroke-width="4"/>
<path d="M156 288.5C156.5 288.5 160.54 289.231 163.5 290.5C167.736 292.316 169.5 293.5 173 297.5C176.5 301.5 178.5 304.5 180 308C181.5 311.5 182 312.5 184.5 317C187 321.5 189.229 324.06 193 328.5C197.031 333.246 201 337.5 205 340.5C209 343.5 211.5 345.5 215.5 346.5C219.5 347.5 224.5 347.5 228 346.5C231.5 345.5 236.111 344.227 241 342C246.577 339.46 250.833 337.5 255 334.5C259.167 331.5 263.801 328.462 268.5 323.5C272.449 319.33 275.5 316.5 278.5 314C281.5 311.5 283.914 308.411 287.5 306.5C291.086 304.589 293.078 304.159 297.5 303C304.717 301.109 308.611 299.967 316 301C324.227 302.15 335 308 335 308L356.5 318.5C356.5 318.5 367.25 323.834 374.5 326.5C383.832 329.932 389.06 333.771 399 334C405.968 334.161 409.977 332.954 416.5 330.5C421.897 328.47 425.093 327.218 429.5 323.5C435.876 318.122 437 316 443 306C449 296 456 279.5 456 279.5C460.167 272.833 461.847 266.216 468 259.5C472.121 255.002 476.67 255.297 481 251C485.526 246.51 487.5 244 492 239.5C496.333 235.167 498.881 230.662 505 231C510.407 231.299 512.907 232.949 516.5 237C519.943 240.881 520 249.5 520 249.5" stroke="#F45F29" stroke-width="4"/>
<path d="M155 177.5V394H522.5" stroke="#636569" stroke-width="2"/>
<rect x="602" y="283" width="97" height="27" rx="13.5" fill="#636569"/>
<rect x="1012" y="186" width="69" height="22" rx="11" fill="#636569"/>
<rect x="843" y="186" width="60" height="22" rx="11" fill="#636569"/>
<rect x="761" y="186" width="45" height="22" rx="11" fill="#636569"/>
<rect x="742" y="232" width="353" height="40" rx="20" fill="#353A40"/>
<rect x="1012" y="241" width="69" height="22" rx="11" fill="#636569"/>
<rect x="843" y="241" width="60" height="22" rx="11" fill="#636569"/>
<rect x="761" y="241" width="45" height="22" rx="11" fill="#636569"/>
<rect x="742" y="293" width="353" height="40" rx="20" fill="#353A40"/>
<rect x="1012" y="302" width="69" height="22" rx="11" fill="#636569"/>
<rect x="843" y="302" width="60" height="22" rx="11" fill="#636569"/>
<rect x="761" y="302" width="45" height="22" rx="11" fill="#636569"/>
<rect x="742" y="354" width="353" height="40" rx="20" fill="#353A40"/>
<rect x="1012" y="363" width="69" height="22" rx="11" fill="#636569"/>
<rect x="843" y="363" width="60" height="22" rx="11" fill="#636569"/>
<rect x="761" y="363" width="45" height="22" rx="11" fill="#636569"/>
</svg>
